<svg width="167" height="52" viewBox="0 0 167 52" fill="none" xmlns="http://www.w3.org/2000/svg">
<g clip-path="url(#clip0_180_296)">
<g clip-path="url(#clip1_180_296)">
<path fill-rule="evenodd" clip-rule="evenodd" d="M167 0H0V52H41.245L46.2727 40.44L36.5484 16.7937H43.4255L49.6894 33.7402L56.0408 16.7937H62.5675L47.7641 52H130.012L135.039 40.44L125.315 16.7937H132.192L138.456 33.7402L144.807 16.7937H151.334L136.531 52H167V0ZM123.374 8.64885V41.0531H117.241V8.64885H123.374ZM18.7478 40.2649C20.4707 40.9947 22.3981 41.3596 24.5298 41.3596C26.7784 41.3596 28.7204 40.9509 30.3557 40.1335C31.991 39.2869 33.2321 38.163 34.079 36.7617C34.9258 35.3604 35.3493 33.8424 35.3493 32.2076C35.3493 30.31 34.8966 28.7774 33.9914 27.6097C33.0861 26.442 32.0056 25.5662 30.7499 24.9823C29.4942 24.3985 27.8735 23.8146 25.8877 23.2307C24.4276 22.7929 23.2887 22.4133 22.4711 22.0922C21.6826 21.7419 21.011 21.304 20.4561 20.7785C19.9305 20.2239 19.6677 19.5378 19.6677 18.7204C19.6677 17.5527 20.0181 16.6623 20.719 16.0493C21.449 15.4362 22.4127 15.1297 23.61 15.1297C24.9825 15.1297 26.0776 15.48 26.8952 16.1806C27.7421 16.8521 28.1947 17.7133 28.2531 18.7642H34.9988C34.7944 16.0201 33.6993 13.889 31.7136 12.371C29.757 10.8237 27.2018 10.0501 24.048 10.0501C21.9454 10.0501 20.0765 10.415 18.4412 11.1448C16.8059 11.8455 15.5356 12.8672 14.6303 14.2101C13.725 15.553 13.2724 17.1294 13.2724 18.9394C13.2724 20.8661 13.7104 22.4133 14.5865 23.5811C15.4918 24.7196 16.5576 25.5808 17.7841 26.1646C19.0398 26.7193 20.6606 27.2886 22.6463 27.8724C24.1064 28.2811 25.2453 28.6606 26.063 29.011C26.9098 29.3321 27.6107 29.7846 28.1655 30.3684C28.7204 30.9523 28.9978 31.6967 28.9978 32.6017C28.9978 33.711 28.5889 34.616 27.7713 35.3166C26.9536 35.9881 25.8293 36.3238 24.3984 36.3238C22.9967 36.3238 21.887 35.9589 21.0694 35.2291C20.2809 34.4992 19.8429 33.5067 19.7553 32.2514H13.1848C13.214 34.1197 13.725 35.7399 14.7179 37.112C15.7108 38.4841 17.0541 39.535 18.7478 40.2649ZM78.0068 16.4434C80.8978 16.4434 83.234 17.363 85.0153 19.2021C86.7967 21.0121 87.6873 23.5519 87.6873 26.8215V41.0531H81.5549V27.6535C81.5549 25.7267 81.073 24.2525 80.1094 23.2307C79.1457 22.1798 77.8316 21.6543 76.1671 21.6543C74.4733 21.6543 73.13 22.1798 72.1372 23.2307C71.1735 24.2525 70.6917 25.7267 70.6917 27.6535V41.0531H64.5592V16.7937H70.6917V19.8152C71.5093 18.7642 72.546 17.9468 73.8017 17.363C75.0866 16.7499 76.4883 16.4434 78.0068 16.4434ZM92.1611 22.355C91.139 24.2233 90.628 26.4128 90.628 28.9234C90.628 31.434 91.139 33.638 92.1611 35.5356C93.1832 37.4039 94.5995 38.8636 96.41 39.9145C98.2205 40.9363 100.294 41.4472 102.63 41.4472C105.609 41.4472 108.091 40.6735 110.077 39.1263C112.062 37.5791 113.391 35.4918 114.063 32.8644H107.448C106.689 35.0831 105.068 36.1924 102.586 36.1924C100.834 36.1924 99.447 35.5648 98.4249 34.3095C97.4029 33.025 96.8918 31.2296 96.8918 28.9234C96.8918 26.5879 97.4029 24.7926 98.4249 23.5373C99.447 22.2528 100.834 21.6105 102.586 21.6105C103.813 21.6105 104.835 21.9171 105.652 22.5301C106.499 23.114 107.098 23.9314 107.448 24.9823H114.063C113.391 22.2674 112.062 20.1655 110.077 18.6766C108.12 17.1586 105.638 16.3996 102.63 16.3996C100.294 16.3996 98.2205 16.9251 96.41 17.976C94.5995 18.9978 93.1832 20.4574 92.1611 22.355Z" fill="#25263E"/>
<rect x="147.836" y="34.2104" width="8.21311" height="8.21053" rx="4" fill="#B79EFF"/>
</g>
</g>
<defs>
<clipPath id="clip0_180_296">
<rect width="167" height="52" fill="white"/>
</clipPath>
<clipPath id="clip1_180_296">
<rect width="167" height="52" rx="12" fill="white"/>
</clipPath>
</defs>
</svg>
